<svg width="84" height="56" viewBox="0 0 84 56" fill="none" xmlns="http://www.w3.org/2000/svg">
<g clip-path="url(#clip0_624_2392)">
<path d="M49.1939 56C49.1939 56 41.056 19.109 68.6227 22.7416C96.189 26.3747 82.6507 -8.50111 59.6683 1.96861C48.6248 8.04487 45.2954 26.792 45.5158 35.4846C45.5158 35.4846 42.1589 5.84869 11.6959 18.7272C0.916702 23.8899 -3.2687 40.7189 2.7894 42.3934C2.7894 42.3934 15.1651 47.5067 25.3008 26.6677C35.9008 9.82312 45.518 35.5612 45.518 35.5612" fill="#30443D"/>
<path d="M46.0894 55.6264C46.0894 55.6264 36.1477 7.93877 24.7851 27.6988C24.7851 27.6988 33.4525 5.80809 45.6696 35.787L49.1543 55.9999L46.0894 55.6264Z" fill="#30443D"/>
</g>
<defs>
<clipPath id="clip0_624_2392">
<rect width="84" height="56" fill="white" transform="matrix(-1 0 0 1 84 0)"/>
</clipPath>
</defs>
</svg>
