<svg width="84" height="56" viewBox="0 0 84 56" fill="none" xmlns="http://www.w3.org/2000/svg">
<g clip-path="url(#clip0_624_2392)">
<path d="M34.8061 56C34.8061 56 42.944 19.109 15.3773 22.7416C-12.189 26.3747 1.34926 -8.50111 24.3317 1.96861C35.3752 8.04487 38.7046 26.792 38.4842 35.4846C38.4842 35.4846 41.8411 5.84869 72.3041 18.7272C83.0833 23.8899 87.2687 40.7189 81.2106 42.3934C81.2106 42.3934 68.8349 47.5067 58.6992 26.6677C48.0992 9.82312 38.482 35.5612 38.482 35.5612" fill="#30443D"/>
<path d="M37.9106 55.6264C37.9106 55.6264 47.8523 7.93877 59.2149 27.6988C59.2149 27.6988 50.5475 5.80809 38.3304 35.787L34.8457 55.9999L37.9106 55.6264Z" fill="#30443D"/>
</g>
<defs>
<clipPath id="clip0_624_2392">
<rect width="84" height="56" fill="white"/>
</clipPath>
</defs>
</svg>
