<svg width="1676" height="523" viewBox="0 0 1676 523" fill="none" xmlns="http://www.w3.org/2000/svg">
<path fill-rule="evenodd" clip-rule="evenodd" d="M374.967 407.973C410.939 416.818 449.147 411.778 481.811 393.76C532.317 365.901 559.048 313.71 556.095 258.003L556 258.055V207L523.442 219.039C574.71 153.982 538.303 82.2624 469.12 1.35352C453.066 86.9452 391.991 115.977 356.336 132.925C325.696 147.49 299.654 168.317 283.058 198.332C269.791 222.327 263.606 249.45 265.157 276.582C243.804 277.078 210.679 291.919 186.047 302.954C173.348 308.643 162.906 313.321 157.5 314.5L274.5 350L287.626 345.68C293.789 355.315 301.103 364.231 309.44 372.167L343.202 394.736C333.254 443.942 334.24 491.051 337.682 510.764L377.675 508.22C377.675 508.22 365.672 463.509 374.967 407.973Z" fill="#0B121E"/>
<path fill-rule="evenodd" clip-rule="evenodd" d="M1192.72 393.25C1225.24 411.528 1263.4 416.873 1299.44 408.316C1308.3 463.925 1295.94 508.538 1295.94 508.538L1335.91 511.402C1339.51 491.718 1340.87 444.618 1331.31 395.334L1365.26 373.036C1370.27 368.342 1374.92 363.297 1379.18 357.955L1407.5 361L1521 330.5L1408.49 292.996C1409.06 289.747 1409.51 286.476 1409.85 283.187C1412.83 254.296 1406.97 225.111 1393.03 199.417C1376.67 169.27 1350.8 148.236 1320.28 133.427C1284.76 116.194 1223.92 86.6744 1208.55 0.957031C1117.08 106.217 1081.97 196.157 1226.59 277.448C1207.81 282.554 1179.62 290.214 1119.52 256.903C1116.12 312.584 1142.44 364.987 1192.72 393.25Z" fill="#0B121E"/>
<path d="M1127 168L1119.5 258L1174.5 309.5L1260 299.5L1127 168Z" fill="#0B121E"/>
</svg>
