<svg width="1676" height="523" viewBox="0 0 1676 523" fill="none" xmlns="http://www.w3.org/2000/svg">
<path d="M39 285L199 224.5L223 222L56.5 391.5C34.5 373.5 24.1667 358.167 22 352.5L39 285Z" fill="#0B121E"/>
<path d="M72.2133 410.84C103.424 432.088 141.714 440.875 179.328 435.297C237.49 426.673 281.606 386.356 298.62 332.116C229.272 341.977 205.219 324.439 189.183 312.748C356.473 287.943 355.753 189.565 306.926 56.1123C261.116 132.121 192.442 138.103 152.35 141.595C117.898 144.595 85.6076 155.212 59.069 177.963C36.4494 197.355 20.2542 223.006 12.5832 251.59C3.52473 285.345 7.04944 321.884 22.3726 353.33C88.9676 253.104 195.66 232.13 195.66 232.13C195.66 232.13 104.239 293.7 46.585 386.896C19.5624 430.337 3.73115 475.667 0 495.714L39.106 507.519C39.106 507.519 43.5607 460.558 72.2133 410.84Z" fill="#E03715"/>
<path d="M1639 303.5L1470.5 236.5L1604.5 426C1632.1 400 1648.33 376.167 1653 367.5L1639 303.5Z" fill="#0B121E"/>
<path d="M1603.16 425.84C1571.95 447.088 1533.66 455.875 1496.05 450.297C1437.89 441.673 1393.77 401.356 1376.76 347.116C1446.1 356.977 1470.16 339.439 1486.19 327.748C1318.9 302.943 1319.62 204.565 1368.45 71.1123C1414.26 147.121 1482.93 153.103 1523.03 156.595C1557.48 159.595 1589.77 170.212 1616.31 192.963C1638.93 212.355 1655.12 238.006 1662.79 266.59C1671.85 300.345 1668.33 336.884 1653 368.33C1586.41 268.104 1479.72 247.13 1479.72 247.13C1479.72 247.13 1571.14 308.7 1628.79 401.896C1655.81 445.337 1671.64 490.667 1675.38 510.714L1636.27 522.519C1636.27 522.519 1631.82 475.558 1603.16 425.84Z" fill="#E03715"/>
</svg>
