<svg width="1676" height="523" viewBox="0 0 1676 523" fill="none" xmlns="http://www.w3.org/2000/svg">
<path d="M826.234 132.238C807.248 135.844 790.21 146.522 778.615 162.154C760.687 186.325 759.312 216.883 772.785 242.671C794.314 214.004 809.367 211.646 819.402 210.074C767.834 279.597 803.699 314.941 869.67 345.569C858.74 301.48 881.43 274.461 894.676 258.687C906.059 245.132 913.903 229.603 915.274 211.764C916.443 196.559 913.02 181.414 905.451 168.293C896.513 152.798 882.013 140.849 865.086 135.014C865.086 135.014 851.5 132.238 844.175 131.629C844.175 131.629 833 131.629 826.234 132.238Z" fill="#E03715"/>
<path d="M840.5 108V67" stroke="black" stroke-width="2"/>
<path d="M822.882 49.4316C821.25 49.4316 819.966 50.3676 819.966 51.8676C819.966 53.3916 820.998 53.9916 822.738 54.3756L822.846 54.3996C823.95 54.6396 824.574 54.8796 824.574 55.6116C824.574 56.2356 824.094 56.7756 823.074 56.7756C821.802 56.7756 821.214 56.0796 821.214 55.0476V54.8316H819.654V55.0956C819.654 57.0636 820.974 58.1676 823.026 58.1676C824.814 58.1676 826.134 57.2196 826.134 55.5276C826.134 54.0036 825.114 53.3916 823.386 53.0076L823.278 52.9836C822.27 52.7556 821.526 52.6116 821.526 51.8196C821.526 51.2436 822.042 50.8236 822.882 50.8236C823.842 50.8236 824.454 51.2436 824.454 52.2036V52.4556H825.99V52.0956C825.99 50.4156 824.682 49.4316 822.882 49.4316Z" fill="#0B121E"/>
<path d="M826.92 52.8396V54.7596C826.92 56.9916 828.336 58.1676 830.4 58.1676C832.62 58.1676 833.712 56.9796 833.712 55.1196V54.8316H832.128V55.1436C832.128 56.0916 831.66 56.7516 830.4 56.7516C829.164 56.7516 828.504 55.9836 828.504 54.8316V52.7676C828.504 51.7116 829.212 50.8476 830.4 50.8476C831.552 50.8476 832.128 51.4956 832.128 52.4556V52.7676H833.712V52.4796C833.712 50.6076 832.524 49.4316 830.4 49.4316C828.276 49.4316 826.92 50.7516 826.92 52.8396Z" fill="#0B121E"/>
<path d="M841.105 52.2523C841.105 50.6563 840.001 49.6123 838.417 49.6123H834.721V58.0003H836.305V54.8923H837.709L839.257 58.0003H841.009L839.305 54.7603C840.385 54.4363 841.105 53.5243 841.105 52.2523ZM836.305 51.0523H838.261C839.017 51.0523 839.521 51.5203 839.521 52.2523C839.521 52.9843 839.017 53.4523 838.261 53.4523H836.305V51.0523Z" fill="#0B121E"/>
<path d="M841.779 52.9116V54.6876C841.779 56.8956 843.087 58.1676 845.235 58.1676C847.383 58.1676 848.691 56.8956 848.691 54.6876V52.9116C848.691 50.7636 847.383 49.4316 845.235 49.4316C843.087 49.4316 841.779 50.7636 841.779 52.9116ZM843.363 52.8396C843.363 51.6996 844.023 50.8476 845.235 50.8476C846.411 50.8476 847.107 51.6516 847.107 52.8396V54.7596C847.107 55.9236 846.543 56.7516 845.235 56.7516C843.963 56.7516 843.363 55.9716 843.363 54.7596V52.8396Z" fill="#0B121E"/>
<path d="M849.744 49.5996V57.9996H855.216V56.5596H851.328V49.5996H849.744Z" fill="#0B121E"/>
<path d="M856.061 49.5996V57.9996H861.533V56.5596H857.645V49.5996H856.061Z" fill="#0B121E"/>
</svg>
