<svg width="32" height="32" viewBox="0 0 32 32" fill="none" xmlns="http://www.w3.org/2000/svg"><path d="M26.6666 10.0182C25.867 10.3674 25.0201 10.5963 24.1535 10.6976C25.0631 10.1635 25.7472 9.31641 26.0778 8.3147C25.2159 8.81638 24.2759 9.16974 23.297 9.36003C22.8848 8.92825 22.3889 8.58498 21.8397 8.35115C21.2904 8.11733 20.6993 7.99786 20.1023 8.00003C17.6853 8.00003 15.7258 9.9307 15.7258 12.3094C15.7258 12.6464 15.7642 12.976 15.8389 13.2907C14.1051 13.2082 12.4075 12.7653 10.8545 11.99C9.30149 11.2148 7.92713 10.1244 6.81912 8.7883C6.43067 9.44366 6.22649 10.1918 6.22819 10.9536C6.22819 12.4502 7.00045 13.7696 8.17379 14.5408C7.4799 14.5184 6.80101 14.3332 6.19192 14V14.0534C6.19192 16.1419 7.70125 17.8838 9.70125 18.2806C9.32537 18.3803 8.93814 18.4309 8.54925 18.431C8.26659 18.431 7.99245 18.4043 7.72472 18.351C8.01067 19.2127 8.5579 19.9641 9.29039 20.5007C10.0229 21.0372 10.9043 21.3324 11.8122 21.3451C10.2549 22.5446 8.34319 23.1926 6.37752 23.1872C6.02339 23.1872 5.67565 23.1659 5.33325 23.1275C7.33992 24.3976 9.66668 25.0702 12.0415 25.0667C20.0917 25.0667 24.4927 18.4992 24.4927 12.8043L24.4778 12.2464C25.3363 11.6423 26.0779 10.8873 26.6666 10.0182Z" fill="white"></path></svg>